<svg width="48" height="74" viewBox="0 0 48 74" fill="none" xmlns="http://www.w3.org/2000/svg">
<path d="M47.9986 52.2932C47.9923 52.1286 47.9387 51.9693 47.8442 51.8343C47.7497 51.6994 47.6183 51.5946 47.4657 51.5324C47.3131 51.4703 47.1459 51.4534 46.984 51.4839C46.8221 51.5143 46.6724 51.5908 46.5528 51.7042L24.839 71.0083L24.839 0.940362C24.8475 0.886971 24.8475 0.833108 24.839 0.779717C24.797 0.331111 24.3504 -0.0387908 23.9019 0.00326592C23.4533 0.0453223 23.0834 0.491756 23.1254 0.940362L23.1254 71.0083L1.43836 51.7042C1.26794 51.5515 1.04384 51.4728 0.815382 51.4853C0.586921 51.4979 0.372805 51.6007 0.220134 51.7711C0.067464 51.9415 -0.0112528 52.1656 0.00130005 52.3941C0.0138529 52.6225 0.116647 52.8367 0.28707 52.9893L23.4199 73.5519C23.5776 73.6949 23.7828 73.7741 23.9956 73.7741C24.2084 73.7741 24.4136 73.6949 24.5712 73.5519L47.7041 52.9893C47.8032 52.9035 47.8812 52.7962 47.9323 52.6755C47.9833 52.5548 48.006 52.424 47.9986 52.2932Z" fill="#121212" fill-opacity="0.5"/>
</svg>
