<svg width="432" height="41" viewBox="0 0 432 41" fill="none" xmlns="http://www.w3.org/2000/svg">
<g clip-path="url(#clip0_6583_16668)">
<path d="M0 40.6V0H32.5V8.1H8.1V16.2H24.3V24.4H8.1V32.5H32.5V40.6H0Z" fill="black"/>
<path d="M67.7004 40.6L51.4004 0H60.1004L71.8004 28.9L83.3004 0H92.0004L75.8004 40.6H67.7004Z" fill="black"/>
<path d="M113.1 40.6V0H145.6V8.1H121.2V16.2H137.4V24.4H121.2V32.5H145.6V40.6H113.1Z" fill="black"/>
<path d="M199.3 22.8011L205.1 40.6011H196.6L191.3 24.4011H177.1V40.6011H169V0.00108599H193.3C194.91 -0.020427 196.508 0.277875 198.001 0.878688C199.494 1.4795 200.854 2.37087 202 3.50109C203.156 4.62812 204.065 5.98396 204.667 7.48199C205.27 8.98001 205.554 10.5873 205.5 12.2011C205.553 14.3694 205.001 16.5095 203.905 18.3816C202.81 20.2538 201.216 21.7841 199.3 22.8011ZM177.1 16.2011H193.3C193.839 16.2069 194.374 16.1036 194.873 15.8974C195.371 15.6912 195.822 15.3863 196.2 15.0011C196.592 14.6291 196.902 14.1786 197.109 13.6789C197.316 13.1792 197.415 12.6416 197.4 12.1011C197.4 11.5627 197.294 11.0295 197.088 10.5321C196.882 10.0346 196.58 9.58267 196.199 9.20195C195.818 8.82123 195.366 8.51922 194.869 8.31318C194.372 8.10714 193.838 8.00109 193.3 8.00109H177.1V16.2011Z" fill="black"/>
<path d="M229.6 40.6V0H237.7V32.5H258V40.6H229.6Z" fill="black"/>
<path d="M306.8 32.5H290.1L286.8 40.6H278.1L294.4 0H302.5L318.8 40.6H310.1L306.8 32.5ZM303.5 24.4L298.4 11.7L293.3 24.4H303.5Z" fill="black"/>
<path d="M375 0V40.6H366.9L346.6 13.6V40.6H338.5V0H346.6L366.9 27V0H375Z" fill="black"/>
<path d="M399.5 40.6V0H432V8.1H407.6V16.2H423.8V24.4H407.6V32.5H432V40.6H399.5Z" fill="black"/>
</g>
<defs>
<clipPath id="clip0_6583_16668">
<rect width="432" height="40.6" fill="white"/>
</clipPath>
</defs>
</svg>
