<svg width="392" height="259" viewBox="0 0 392 259" fill="none" xmlns="http://www.w3.org/2000/svg">
<rect width="392.001" height="258.918" fill="#FAFAFA"/>
<path d="M178.707 108.795L211.813 86.3062H272.919C296.033 86.3062 305.695 95.1072 305.695 108.666C305.695 125.711 293.581 140.33 268.142 140.33L227.295 140.165C221.097 140.165 217.565 140.881 216.919 145.271L215.95 150.504H299.368L278.354 172.612H194.684H186.284L187.541 165.53L191.287 144.435C194.127 128.681 206.942 118.259 228.119 118.259H268.472C275.703 118.259 279.178 118.483 279.178 113.318C279.178 109.702 276.512 108.795 270.96 108.795H178.707Z" fill="#121212"/>
<path d="M164.472 144.166L195.177 172.612H154.824L132.706 149.977C125.088 142.229 121.601 138.484 119.277 135.514L117.469 147.911L113.122 172.612H86.3066L101.586 86.3159H128.316L124.829 106.331C123.796 111.625 122.505 116.92 121.601 121.439C125.475 118.34 131.028 113.95 139.938 107.364L168.604 86.3159H207.343L170.025 111.109C156.854 119.76 150.914 123.634 144.845 126.992C149.106 130.349 154.917 135.127 164.472 144.166Z" fill="#121212"/>
</svg>
