<svg width="392" height="259" viewBox="0 0 392 259" fill="none" xmlns="http://www.w3.org/2000/svg">
<rect width="392" height="258.918" fill="#00DCF0"/>
<path d="M178.707 108.794L211.813 86.3057H272.919C296.033 86.3057 305.695 95.1067 305.695 108.665C305.695 125.71 293.581 140.329 268.142 140.329L227.295 140.164C221.097 140.164 217.564 140.88 216.919 145.27L215.95 150.503H299.368L278.354 172.612H194.684H186.284L187.541 165.529L191.287 144.434C194.127 128.68 206.942 118.259 228.119 118.259H268.472C275.703 118.259 279.178 118.483 279.178 113.317C279.178 109.702 276.512 108.794 270.959 108.794H178.707Z" fill="#121212"/>
<path d="M164.472 144.165L195.177 172.611H154.824L132.706 149.976C125.088 142.228 121.601 138.484 119.277 135.514L117.469 147.91L113.122 172.611H86.3066L101.586 86.3154H128.316L124.829 106.33C123.796 111.625 122.505 116.919 121.601 121.439C125.475 118.34 131.028 113.949 139.938 107.364L168.604 86.3154H207.343L170.025 111.108C156.853 119.76 150.914 123.634 144.844 126.991C149.106 130.349 154.917 135.126 164.472 144.165Z" fill="#121212"/>
</svg>
