<svg width="902" height="72" viewBox="0 0 902 72" fill="none" xmlns="http://www.w3.org/2000/svg">
<path d="M19.76 14.776V69.656C19.76 70.552 19.2373 71 18.4533 71H7.17867C6.39467 71 5.872 70.552 5.872 69.656V14.776C5.872 14.664 5.76 14.328 5.312 14.328H1.504C0.608 14.328 0.16 13.992 0.16 13.096V1.896C0.16 1 0.608 0.663998 1.504 0.663998H24.128C25.024 0.663998 25.472 1 25.472 1.896V13.096C25.472 13.992 25.024 14.328 24.128 14.328H20.32C19.872 14.328 19.76 14.664 19.76 14.776ZM61.641 26.312V2.008C61.641 1 62.2383 0.663998 62.9103 0.663998H74.297C74.969 0.663998 75.529 1 75.529 2.008V69.656C75.529 70.4027 74.9317 71 74.297 71H62.873C62.089 71 61.641 70.552 61.641 69.656V45.016C61.641 44.12 60.969 43.448 60.297 43.448H53.577C52.793 43.448 52.233 44.12 52.233 45.016V69.656C52.233 70.552 51.785 71 51.001 71H39.577C38.6063 71 38.345 70.328 38.345 69.656V2.008C38.345 1 38.905 0.663998 39.577 0.663998H51.001C51.673 0.663998 52.233 1 52.233 2.008V26.312C52.233 27.32 52.793 27.88 53.577 27.88H60.297C60.969 27.88 61.641 27.32 61.641 26.312ZM111.61 71H90.2176C89.4336 71 88.9856 70.552 88.9856 69.768V1.896C88.9856 1.112 89.4336 0.663998 90.2176 0.663998H111.61C112.394 0.663998 112.842 1.224 112.842 2.008V12.984C112.842 14.0667 112.207 14.552 111.386 14.552H105.562C103.732 14.552 102.874 15.5973 102.874 17.3893V25.416C102.874 26.536 103.322 27.992 106.01 27.992H109.146C109.818 27.992 110.378 28.552 110.378 29.224V42.328C110.378 43 109.818 43.56 109.146 43.56H106.01C103.322 43.56 102.874 45.016 102.874 46.136V53.976C102.874 55.432 103.322 57.112 105.562 57.112H111.61C112.394 57.112 112.842 57.56 112.842 58.344V69.768C112.842 70.44 112.394 71 111.61 71ZM182.399 71H160.111C159.215 71 158.767 70.552 158.767 69.768V2.008C158.767 1.112 159.103 0.663998 159.887 0.663998H171.423C172.319 0.663998 172.655 1.112 172.655 2.008V56.776C172.655 57.112 172.842 57.336 173.178 57.336H182.399C183.071 57.336 183.743 57.896 183.743 58.568V69.768C183.743 70.552 183.295 71 182.399 71ZM208.72 71H197.296C196.288 71 196.064 70.216 196.064 69.656V2.008C196.064 1.336 196.624 0.663998 197.296 0.663998H208.72C209.392 0.663998 209.952 1.336 209.952 2.008V69.656C209.952 70.216 209.69 71 208.72 71ZM242.448 14.776V69.656C242.448 70.552 241.925 71 241.141 71H229.866C229.082 71 228.559 70.552 228.559 69.656V14.776C228.559 14.664 228.447 14.328 227.999 14.328H224.192C223.296 14.328 222.847 13.992 222.847 13.096V1.896C222.847 1 223.296 0.663998 224.192 0.663998H246.815C247.712 0.663998 248.159 1 248.159 1.896V13.096C248.159 13.992 247.712 14.328 246.815 14.328H243.007C242.559 14.328 242.448 14.664 242.448 14.776ZM280.073 14.776V69.656C280.073 70.552 279.55 71 278.766 71H267.491C266.707 71 266.184 70.552 266.184 69.656V14.776C266.184 14.664 266.072 14.328 265.624 14.328H261.817C260.921 14.328 260.472 13.992 260.472 13.096V1.896C260.472 1 260.921 0.663998 261.817 0.663998H284.44C285.337 0.663998 285.784 1 285.784 1.896V13.096C285.784 13.992 285.337 14.328 284.44 14.328H280.632C280.184 14.328 280.073 14.664 280.073 14.776ZM323.93 71H301.642C300.746 71 300.298 70.552 300.298 69.768V2.008C300.298 1.112 300.634 0.663998 301.418 0.663998H312.954C313.85 0.663998 314.186 1.112 314.186 2.008V56.776C314.186 57.112 314.373 57.336 314.709 57.336H323.93C324.602 57.336 325.274 57.896 325.274 58.568V69.768C325.274 70.552 324.826 71 323.93 71ZM360.219 71H338.827C338.043 71 337.595 70.552 337.595 69.768V1.896C337.595 1.112 338.043 0.663998 338.827 0.663998H360.219C361.003 0.663998 361.451 1.224 361.451 2.008V12.984C361.451 14.0667 360.816 14.552 359.995 14.552H354.171C352.342 14.552 351.483 15.5973 351.483 17.3893V25.416C351.483 26.536 351.931 27.992 354.619 27.992H357.755C358.427 27.992 358.987 28.552 358.987 29.224V42.328C358.987 43 358.427 43.56 357.755 43.56H354.619C351.931 43.56 351.483 45.016 351.483 46.136V53.976C351.483 55.432 351.931 57.112 354.171 57.112H360.219C361.003 57.112 361.451 57.56 361.451 58.344V69.768C361.451 70.44 361.003 71 360.219 71ZM441.088 71.224C421.6 71.224 405.696 55.32 405.696 35.72C405.696 16.344 421.6 0.440001 441.088 0.440001C448.368 0.440001 455.2 2.68 461.248 6.824C461.696 7.12267 461.958 7.98133 461.584 8.504L455.2 17.688C454.79 18.248 453.931 18.3973 453.408 18.024C449.824 15.448 445.568 14.104 441.088 14.104C429.104 14.104 419.36 23.848 419.36 35.72C419.36 47.816 429.104 57.56 441.088 57.56C445.344 57.56 449.712 56.44 453.184 53.864C453.632 53.528 454.491 53.64 454.864 54.2L461.136 63.496C461.51 64.056 461.323 64.8027 460.8 65.176C454.976 69.096 448.144 71.224 441.088 71.224ZM496.735 26.312V2.008C496.735 1 497.332 0.663998 498.004 0.663998H509.391C510.063 0.663998 510.623 1 510.623 2.008V69.656C510.623 70.4027 510.025 71 509.391 71H497.967C497.183 71 496.735 70.552 496.735 69.656V45.016C496.735 44.12 496.063 43.448 495.391 43.448H488.671C487.887 43.448 487.327 44.12 487.327 45.016V69.656C487.327 70.552 486.879 71 486.095 71H474.671C473.7 71 473.439 70.328 473.439 69.656V2.008C473.439 1 473.999 0.663998 474.671 0.663998H486.095C486.767 0.663998 487.327 1 487.327 2.008V26.312C487.327 27.32 487.887 27.88 488.671 27.88H495.391C496.063 27.88 496.735 27.32 496.735 26.312ZM536.735 71H525.311C524.303 71 524.079 70.216 524.079 69.656V2.008C524.079 1.336 524.639 0.663998 525.311 0.663998H536.735C537.407 0.663998 537.967 1.336 537.967 2.008V69.656C537.967 70.216 537.706 71 536.735 71ZM575.813 26.312V2.008C575.813 1 576.41 0.663998 577.082 0.663998H588.469C589.141 0.663998 589.701 1 589.701 2.008V69.656C589.701 70.4027 589.104 71 588.469 71H577.045C576.261 71 575.813 70.552 575.813 69.656V45.016C575.813 44.12 575.141 43.448 574.469 43.448H567.749C566.965 43.448 566.405 44.12 566.405 45.016V69.656C566.405 70.552 565.957 71 565.173 71H553.749C552.778 71 552.517 70.328 552.517 69.656V2.008C552.517 1 553.077 0.663998 553.749 0.663998H565.173C565.845 0.663998 566.405 1 566.405 2.008V26.312C566.405 27.32 566.965 27.88 567.749 27.88H574.469C575.141 27.88 575.813 27.32 575.813 26.312ZM622.395 71.336C612.987 71.336 603.691 63.272 603.691 52.968V1.896C603.691 0.776003 604.699 0.663998 605.035 0.663998H616.347C617.243 0.663998 617.579 1.112 617.579 1.896V52.744C617.579 55.096 619.371 57.672 622.395 57.672C625.195 57.672 627.211 55.656 627.211 52.744V1.896C627.211 1.112 627.659 0.663998 628.443 0.663998H639.755C640.651 0.663998 641.099 1.112 641.099 1.896V52.968C641.099 62.488 632.587 71.336 622.395 71.336ZM660.173 71H647.852C646.994 71 646.396 70.104 646.844 69.208L683.245 1.112C683.469 0.663998 683.916 0.440001 684.364 0.440001C684.812 0.440001 685.261 0.663998 685.484 1.112L721.884 69.208C722.295 69.992 721.772 71 720.876 71H708.557C707.997 71 707.66 70.776 707.437 70.328L697.245 51.064C697.02 50.616 696.236 49.72 695.117 49.72H673.613C672.492 49.72 671.708 50.616 671.484 51.064L661.292 70.328C661.069 70.776 660.732 71 660.173 71ZM683.58 27.992L679.212 36.28H689.516L685.148 27.992C684.924 27.544 684.7 27.32 684.364 27.32C684.029 27.32 683.804 27.544 683.58 27.992ZM754.86 26.312V2.008C754.86 1 755.457 0.663998 756.129 0.663998H767.516C768.188 0.663998 768.748 1 768.748 2.008V69.656C768.748 70.4027 768.15 71 767.516 71H756.092C755.308 71 754.86 70.552 754.86 69.656V45.016C754.86 44.12 754.188 43.448 753.516 43.448H746.796C746.012 43.448 745.452 44.12 745.452 45.016V69.656C745.452 70.552 745.004 71 744.22 71H732.796C731.825 71 731.564 70.328 731.564 69.656V2.008C731.564 1 732.124 0.663998 732.796 0.663998H744.22C744.892 0.663998 745.452 1 745.452 2.008V26.312C745.452 27.32 746.012 27.88 746.796 27.88H753.516C754.188 27.88 754.86 27.32 754.86 26.312ZM801.442 71.336C792.034 71.336 782.738 63.272 782.738 52.968V1.896C782.738 0.776003 783.746 0.663998 784.082 0.663998H795.394C796.29 0.663998 796.626 1.112 796.626 1.896V52.744C796.626 55.096 798.418 57.672 801.442 57.672C804.242 57.672 806.258 55.656 806.258 52.744V1.896C806.258 1.112 806.706 0.663998 807.49 0.663998H818.802C819.698 0.663998 820.146 1.112 820.146 1.896V52.968C820.146 62.488 811.634 71.336 801.442 71.336ZM839.219 71H826.899C826.041 71 825.443 70.104 825.891 69.208L862.291 1.112C862.515 0.663998 862.963 0.440001 863.411 0.440001C863.859 0.440001 864.307 0.663998 864.531 1.112L900.931 69.208C901.342 69.992 900.819 71 899.923 71H887.603C887.043 71 886.707 70.776 886.483 70.328L876.291 51.064C876.067 50.616 875.283 49.72 874.163 49.72H852.659C851.539 49.72 850.755 50.616 850.531 51.064L840.339 70.328C840.115 70.776 839.779 71 839.219 71ZM862.627 27.992L858.259 36.28H868.563L864.195 27.992C863.971 27.544 863.747 27.32 863.411 27.32C863.075 27.32 862.851 27.544 862.627 27.992Z" fill="#CD3626"/>
</svg>
